<svg width="30" height="30" viewBox="0 0 30 30" fill="none" xmlns="http://www.w3.org/2000/svg">
  <circle cx="15" cy="15" r="15" fill="white"></circle>
  <path d="M19.75 11.2C18.35 11.2 17.1 10.38 16.55 9.15V9C16.55 8.62 16.24 8.3 15.85 8.3C15.46 8.3 15.15 8.62 15.15 9V17.15C15.15 18.29 14.23 19.2 13.1 19.2C11.97 19.2 11.05 18.29 11.05 17.15C11.05 16.01 11.97 15.1 13.1 15.1C13.48 15.1 13.85 15.2 14.16 15.38V13.86C13.86 13.79 13.55 13.75 13.24 13.75C10.98 13.75 9.15 15.59 9.15 17.85C9.15 20.11 10.98 21.95 13.24 21.95C15.5 21.95 17.33 20.11 17.33 17.85V13.81C18.17 14.46 19.19 14.83 20.25 14.83C20.63 14.83 20.95 14.52 20.95 14.13C20.95 13.74 20.63 13.43 20.25 13.43C19.5 13.43 18.79 13.26 18.17 12.93C18.17 12.93 18.59 11.2 19.75 11.2Z" fill="#00e5ff"></path>
</svg>
