<svg width="48" height="48" viewBox="0 0 48 48" xmlns="http://www.w3.org/2000/svg">
  <circle cx="24" cy="24" r="22" fill="#ffffff"></circle>
  <path fill="#00e5ff" d="M33 17.2c-.8.4-1.7.6-2.6.8.9-.5 1.6-1.4 1.9-2.4-.8.5-1.8.9-2.8 1.1-.8-.9-2-1.5-3.3-1.5-2.6 0-4.8 2.1-4.8 4.7 0 .4 0 .8.1 1.1-4-.2-7.6-2.1-9.9-5.1-.4.7-.6 1.5-.6 2.3 0 1.6.9 3.1 2.2 4-.8 0-1.6-.2-2.3-.6v.1c0 2.3 1.7 4.3 3.9 4.7-.4.1-.8.2-1.2.2-.3 0-.6 0-.9-.1.6 1.9 2.4 3.3 4.6 3.4-1.7 1.3-3.8 2-6.1 2-.4 0-.7 0-1.1-.1 2.2 1.3 4.7 2 7.4 2 8.9 0 13.7-7.2 13.7-13.4v-.6c1-.7 1.7-1.5 2.3-2.4z"></path>
</svg>
